<?xml version="1.0" encoding="utf-8"?>
<!DOCTYPE svg PUBLIC "-//W3C//DTD SVG 1.0//EN" "http://www.w3.org/TR/2001/REC-SVG-20010904/DTD/svg10.dtd">
<svg version="1.0" xmlns="http://www.w3.org/2000/svg" width="40px" height="30px" viewBox="0 0 40 30" preserveAspectRatio="xMidYMid meet">
 <g fill="none">
  <path d="M0 15 l0 -15 20 0 20 0 0 15 0 15 -20 0 -20 0 0 -15z"/>
 </g>
 <g fill="#ffffff">
  <path d="M4.7 15.8 c-0.7 -2.8 1.3 -10.9 3.2 -13.2 1.8 -2.2 5.8 -2 7.8 0.4 2.2 2.5 4.8 2.5 7.3 0 2.8 -2.8 6.6 -2.6 8.6 0.5 0.8 1.3 1.2 2.9 0.8 3.6 -0.5 0.8 -1.2 0.3 -2.1 -1.5 -0.7 -1.4 -2 -2.6 -2.7 -2.6 -2.1 0 -3.9 2.8 -3.3 5 0.7 2.7 -4.6 5 -11.5 5 -4.5 0 -5 0.2 -4.5 1.9 0.3 1.2 -0.1 2.2 -1 2.5 -2.1 0.8 -2 0.8 -2.6 -1.6z m9.8 -7.9 c1.4 -4.3 -4.5 -6.6 -6.1 -2.4 -0.8 1.9 1.3 4.5 3.7 4.5 1 0 2.1 -1 2.4 -2.1z"/>
 </g>
</svg>