<?xml version="1.0" encoding="utf-8"?>
<!DOCTYPE svg PUBLIC "-//W3C//DTD SVG 1.0//EN" "http://www.w3.org/TR/2001/REC-SVG-20010904/DTD/svg10.dtd">
<svg version="1.0" xmlns="http://www.w3.org/2000/svg" width="88px" height="88px" viewBox="0 0 88 88" preserveAspectRatio="xMidYMid meet">
 <g fill="none">
  <path d="M0 44 l0 -44 44 0 44 0 0 44 0 44 -44 0 -44 0 0 -44z m66.9 31.5 c1.6 -0.8 4.1 -2.9 5.6 -4.7 2.2 -2.6 2.6 -3.8 2.1 -6.7 -0.8 -4.9 -5.3 -9.1 -10.4 -9.8 -3.9 -0.5 -4.5 -0.3 -8.2 3.5 -2.9 2.9 -4 4.8 -4 7 0 3.7 4.1 8.9 8.5 10.8 3.8 1.6 3.1 1.7 6.4 -0.1z m-42.4 -35.5 c9.2 -0.4 12.1 -1 17.8 -3.4 6.4 -2.8 6.7 -3.1 6.7 -6.3 l0 -3.3 -7 0 -7 0 0 3.5 c0 2.5 -0.8 4.4 -2.6 6.2 -2.3 2.3 -3.1 2.5 -9.1 2.1 -4.7 -0.3 -6.9 -0.9 -7.8 -2.1 -1 -1.4 -1.4 -1.5 -2.4 -0.4 -1.7 2.1 -2.4 7.3 -1.5 10.4 0.7 2.6 0.8 2.5 1.3 -1.7 l0.6 -4.5 11 -0.5z"/>
 </g>
 <g fill="#ffffff">
  <path d="M9.2 51.5 c-1.7 -3.6 -1.5 -13.5 0.3 -16.9 0.8 -1.5 1.5 -4.2 1.5 -5.8 0 -7.2 6.3 -13.8 13.1 -13.8 4.2 0 9.6 3.2 11.1 6.5 1 2.2 1.7 2.5 6.3 2.5 4.5 0 5.5 -0.4 6.9 -2.5 3.8 -5.8 10.9 -7.9 16.6 -5 7.7 4 9.8 14.5 2.9 14.5 -0.5 0 -0.9 -1.2 -0.9 -2.8 0 -4.6 -2.5 -7.2 -7.1 -7.2 -6.8 0 -10.2 6.3 -6.3 11.8 0.9 1.3 1.4 2.5 1.3 2.7 -0.2 0.1 -4.3 1.9 -9.2 3.9 -8 3.3 -9.5 3.6 -18.7 3.6 -11 0 -11.9 0.5 -10 5.4 0.9 2.5 0.8 2.8 -2.5 4.2 -4.3 1.8 -4 1.8 -5.3 -1.1z m20.3 -18 c3.1 -3 3.2 -6.6 0.2 -10.1 -3.2 -3.6 -8.3 -3.6 -11.4 0.1 -2.7 3.1 -2.8 4.6 -0.8 8.5 2.3 4.5 8.3 5.3 12 1.5z"/>
 </g>
 <g fill="#a1ed92">
  <path d="M58 78.9 c-10.3 -4.1 -12.8 -17.5 -4.5 -24.7 8.4 -7.4 21.4 -3.7 24.3 7 3.2 11.8 -8.5 22.2 -19.8 17.7z"/>
 </g>
</svg>