<?xml version="1.0" encoding="utf-8"?>
<!DOCTYPE svg PUBLIC "-//W3C//DTD SVG 1.0//EN" "http://www.w3.org/TR/2001/REC-SVG-20010904/DTD/svg10.dtd">
<svg version="1.0" xmlns="http://www.w3.org/2000/svg" width="88px" height="88px" viewBox="0 0 88 88" preserveAspectRatio="xMidYMid meet">
 <g fill="none">
  <path d="M0 44 l0 -44 44 0 44 0 0 44 0 44 -44 0 -44 0 0 -44z m59 32.4 c0 -1.4 -0.3 -1.4 -1.5 -0.4 -0.8 0.7 -1.5 1.4 -1.5 1.6 0 0.2 0.7 0.4 1.5 0.4 0.8 0 1.5 -0.7 1.5 -1.6z m-11 -8.1 c1.8 -0.6 0.1 -0.9 -6.5 -1.4 -4.9 -0.3 -9.9 -0.9 -11 -1.3 l-2 -0.8 2 1.3 c2.5 1.6 11.5 3.8 13.5 3.4 0.8 -0.2 2.6 -0.7 4 -1.2z m23 -10.8 c1 -1.2 1 -1.5 -0.4 -1.5 -0.9 0 -1.6 0.7 -1.6 1.5 0 0.8 0.2 1.5 0.4 1.5 0.2 0 0.9 -0.7 1.6 -1.5z m-55.8 -11.5 l-0.4 -6 28.1 0 28.1 0 0 4.3 c0 3.1 0.3 3.8 1 2.7 1.3 -2 1.2 -6.4 -0.2 -9.5 -1.3 -2.9 -2.1 -3.1 -3.8 -1 -0.9 1 -3.2 1.5 -7.6 1.5 -7.7 0 -10.4 -2 -10.4 -7.5 l0 -3.5 -7 0 -7 0 0 2.9 c0 1.5 -0.9 4 -2.1 5.5 -1.8 2.3 -2.7 2.6 -8.3 2.6 -3.8 0 -7 -0.6 -8.2 -1.5 -1.9 -1.3 -2.2 -1.2 -3.3 1.1 -1.4 3.1 -1.4 8.4 -0.1 11.8 0.5 1.4 1.1 2.6 1.2 2.6 0.2 0 0.1 -2.7 0 -6z"/>
 </g>
 <g fill="#cccccc">
  <path d="M52.4 81.1 c-1.8 -1.8 0.3 -6.1 6.6 -13.4 l7 -8.2 -6.5 -0.3 c-6.5 -0.3 -6.5 -0.3 -6.5 -3.2 l0 -3 11 0 11 0 0 3 c0 2.3 -1.6 4.9 -6.5 10.7 -3.6 4.2 -6.5 8 -6.5 8.5 0 0.4 2.9 0.8 6.5 0.8 6.3 0 6.5 0.1 6.5 2.5 0 1.7 -0.6 2.5 -1.7 2.6 -4.7 0.4 -20.5 0.4 -20.9 0z"/>
  <path d="M34.4 71.6 c-17.2 -4.2 -28.9 -21.2 -23.9 -34.6 1 -2.5 2 -6.9 2.4 -9.9 0.6 -4.5 1.4 -6 4.4 -8.7 3.1 -2.9 4.4 -3.4 8.4 -3.4 4.2 0 5 0.4 8.9 4.5 3.6 3.9 4.7 4.5 8.3 4.5 3.6 0 4.7 -0.6 8.4 -4.5 4 -4.1 4.8 -4.5 9.1 -4.5 4.3 0 5.3 0.5 8.7 3.9 3.3 3.3 3.9 4.5 3.9 8.2 0.1 2.4 0.7 5.5 1.5 6.9 1.4 2.5 2 12.5 0.9 15.4 -0.4 1.1 -1.9 1.6 -5 1.6 -4.1 0 -4.4 -0.2 -3.4 -1.9 0.5 -1.1 1 -2.9 1 -4 0 -2.1 -0.4 -2.1 -25 -2.1 -24.1 0 -25 0.1 -25 1.9 0 3.3 1.8 6.8 5.5 11 6.2 6.8 18.3 9.9 27.5 7 4.3 -1.3 9 -1.8 9 -0.9 0 0.3 -1.6 2.5 -3.5 4.8 -5.2 6.1 -11.4 7.4 -22.1 4.8z m-3.5 -39.2 c3.5 -4.5 2.3 -9.4 -2.7 -11.2 -7.5 -2.6 -13.7 6.3 -8.2 11.8 3 3 8.3 2.7 10.9 -0.6z m35 0 c3.5 -4.5 2.2 -9.3 -3 -11.3 -3 -1.1 -8.3 0.8 -9.3 3.4 -2.1 5.5 1.1 10.5 6.8 10.5 2.5 0 4 -0.7 5.5 -2.6z"/>
 </g>
</svg>