<?xml version="1.0" encoding="utf-8"?>
<!DOCTYPE svg PUBLIC "-//W3C//DTD SVG 1.0//EN" "http://www.w3.org/TR/2001/REC-SVG-20010904/DTD/svg10.dtd">
<svg version="1.0" xmlns="http://www.w3.org/2000/svg" width="88px" height="88px" viewBox="0 0 88 88" preserveAspectRatio="xMidYMid meet">
 <g fill="none">
  <path d="M0 44 l0 -44 44 0 44 0 0 44 0 44 -44 0 -44 0 0 -44z m57 26 c0 -3.3 -0.2 -6 -0.4 -6 -0.8 0 -6.4 10.9 -5.8 11.5 0.3 0.3 1.8 0.5 3.4 0.5 2.8 0 2.8 -0.1 2.8 -6z m17 5 c0 -0.5 -1.6 -3.8 -3.5 -7.2 l-3.5 -6.3 0 7.3 0 7.2 3.5 0 c1.9 0 3.5 -0.4 3.5 -1z m-33 -6.8 c0 -0.8 -11.1 -3.3 -11.8 -2.7 -0.5 0.4 8 3.3 10.1 3.4 0.9 0.1 1.7 -0.3 1.7 -0.7z m-25.8 -22.2 l-0.4 -6 28.1 0 28.1 0 0 2.9 c0 1.7 0.4 3.3 1 3.6 1.4 0.9 1.3 -5.8 -0.2 -9 -1.1 -2.4 -1.2 -2.4 -3.1 -0.8 -1.4 1.3 -3.6 1.8 -8.4 1.8 -5.6 0 -6.7 -0.3 -8.4 -2.4 -1 -1.3 -1.9 -3.8 -1.9 -5.7 l0 -3.4 -7 0 c-6.8 0 -7 0.1 -7 2.5 0 3.6 -1.9 7.1 -4.7 8.4 -4 1.8 -10.7 1.4 -13.7 -1 l-2.6 -2.1 -1.6 3.8 c-0.8 2 -1.3 4.7 -1 6 0.8 2.9 2.5 7.4 2.8 7.4 0.2 0 0.1 -2.7 0 -6z"/>
 </g>
 <g fill="#ffffff">
  <path d="M47.2 77.8 c-2 -2 -1.5 -3.5 4.9 -14.6 6.8 -11.8 8.5 -14.2 10.6 -14.2 1.4 0 5.6 6.2 12.2 18.2 3.5 6.4 4 8.1 3.1 9.8 -1 1.9 -2 2 -15.3 2 -9.8 0 -14.7 -0.4 -15.5 -1.2z m16.8 -4.8 c0 -1.1 -0.6 -2 -1.4 -2 -1.8 0 -2.9 1.6 -2.1 3 1.1 1.8 3.5 1.1 3.5 -1z m0 -10.1 c0 -5.2 -0.2 -6 -1.7 -5.7 -3.2 0.6 -2.9 11.8 0.2 11.8 1.2 0 1.5 -1.4 1.5 -6.1z"/>
  <path d="M34 71.4 c-17.8 -4.8 -29.4 -22.5 -23.5 -35.9 1 -2.2 1.9 -5.8 2 -8.1 0.1 -2.2 1 -5.2 1.9 -6.6 2 -3.1 7.3 -5.8 11.3 -5.8 3.7 0 9 3.3 10.5 6.5 1 2.2 1.8 2.5 6.1 2.5 4.6 0 5.3 -0.3 8.4 -4 5.4 -6.2 12.3 -6.7 18.5 -1.1 2.5 2.2 3.3 3.9 3.9 8.2 0.4 3 1.5 7.4 2.4 9.9 1.8 4.9 1.5 9.7 -1.1 15.8 l-1.5 3.7 -2.8 -4.5 c-1.6 -2.7 -2.6 -5.3 -2.3 -6.7 l0.4 -2.3 -25.2 0 -25.3 0 0.6 3.7 c0.7 4.1 4.8 9.7 9.6 13 3.8 2.6 13.2 4.7 17.2 3.9 l2.9 -0.6 -2.1 4.3 c-3.2 6.3 -3.4 6.4 -11.9 4.1z m-5.7 -36.5 c2.4 -1.1 4.7 -4.7 4.7 -7.4 0 -0.8 -1.1 -2.6 -2.3 -4.1 -2.8 -3.2 -7.8 -3.6 -10.8 -0.8 -3 2.7 -2.6 8.7 0.7 11.3 3 2.4 4.3 2.6 7.7 1z m38 -2.1 c3.3 -3.9 1.6 -9.7 -3.4 -11.7 -3.6 -1.3 -8.6 1 -9.5 4.5 -2.1 8.2 7.5 13.6 12.9 7.2z"/>
 </g>
</svg>