<?xml version="1.0" encoding="utf-8"?>
<!DOCTYPE svg PUBLIC "-//W3C//DTD SVG 1.0//EN" "http://www.w3.org/TR/2001/REC-SVG-20010904/DTD/svg10.dtd">
<svg version="1.0" xmlns="http://www.w3.org/2000/svg" width="88px" height="66px" viewBox="0 0 88 66" preserveAspectRatio="xMidYMid meet">
 <g fill="none">
  <path d="M0 33 l0 -33 44 0 44 0 0 33 0 33 -44 0 -44 0 0 -33z"/>
 </g>
 <g fill="#ffffff">
  <path d="M31.90 57.20 c-5.94 -2.42 -13.42 -10.78 -16.28 -18.26 -2.64 -6.60 0.88 -24.64 5.72 -29.48 3.74 -4.18 11 -3.52 16.06 1.54 2.42 2.42 5.28 4.40 6.60 4.40 1.10 0 4.18 -1.98 6.60 -4.40 4.84 -4.84 13.86 -5.72 16.94 -1.54 1.10 1.32 3.30 7.48 4.62 13.42 2.42 9.24 2.20 11.66 -1.10 18.70 -7.26 14.30 -24.86 21.56 -39.16 15.62z m24.64 -5.28 c-0.66 -1.76 0.66 -4.84 3.08 -6.82 3.96 -3.96 3.96 -3.96 -0.66 -8.14 -2.64 -2.20 -7.26 -4.62 -10.34 -5.28 -9.68 -1.98 -12.32 -4.40 -13.42 -12.10 -0.88 -6.16 -2.20 -7.70 -7.26 -8.14 -5.72 -0.66 -6.16 -0.22 -5.50 5.50 0.44 3.96 2.20 6.38 5.06 6.82 9.24 1.76 10.12 5.06 2.86 11 l-6.82 5.72 5.94 5.06 c4.40 3.74 8.80 5.06 15.84 5.06 5.28 0 9.68 1.10 9.68 2.20 0 1.32 0.66 2.20 1.32 2.20 0.66 0 0.88 -1.32 0.22 -3.08z m8.36 -34.32 c0 -3.96 -1.32 -5.72 -5.06 -6.16 -2.86 -0.44 -5.50 0.66 -6.16 2.64 -2.20 5.72 0.88 10.56 6.16 9.68 3.74 -0.44 5.06 -2.20 5.06 -6.16z"/>
 </g>
</svg>