<?xml version="1.0" encoding="utf-8"?>
<!DOCTYPE svg PUBLIC "-//W3C//DTD SVG 1.0//EN" "http://www.w3.org/TR/2001/REC-SVG-20010904/DTD/svg10.dtd">
<svg version="1.0" xmlns="http://www.w3.org/2000/svg" width="128px" height="128px" viewBox="0 0 128 128" preserveAspectRatio="xMidYMid meet">
 <g fill="none">
  <path d="M0 96 c0 -31.3 0 -32 2 -32 1.1 0 2 0.7 2 1.5 0 3.3 5.5 14.9 9.6 20.3 9 11.6 21.3 19.5 36.6 23.4 9.1 2.3 9.7 2.1 14.2 -5.7 3.9 -6.6 4 -6.6 -4.9 -7 -9.9 -0.5 -20.4 -3.6 -27.2 -8.2 -8.4 -5.5 -15.3 -17.3 -15.3 -25.9 l0 -3.1 11.3 -0.6 c13.6 -0.8 54.4 -0.7 68.2 0.2 l10 0.6 0.6 4.7 c0.6 4.1 4.9 13.1 6.9 14.3 0.4 0.2 1.9 -2.4 3.4 -5.8 3.4 -8.2 3.7 -18.7 0.5 -25 -1.3 -2.5 -2.5 -7.4 -3 -12.1 -0.7 -6.8 -1.3 -8.7 -4.5 -13.3 -4.1 -6 -10.3 -10.2 -16.2 -11 -5.5 -0.7 -12.3 2.8 -18 9.3 l-4.6 5.4 -10 0 -10.1 0 -3.5 -4.7 c-3.8 -5.3 -12.3 -10.3 -17.2 -10.3 -4.2 0 -9 2.3 -13.8 6.7 -5.4 4.8 -7.9 10.3 -8 17.1 0 3.3 -0.9 7.4 -2.5 11.2 -1.4 3.3 -2.5 6.6 -2.5 7.5 0 0.8 -0.9 1.5 -2 1.5 -2 0 -2 -0.7 -2 -27.5 l0 -27.5 64 0 64 0 0 64 0 64 -64 0 -64 0 0 -32z m117.6 25.2 c3.3 -1.1 8 -5.2 6.7 -6 -0.6 -0.4 -5 -7.7 -9.9 -16.2 -11.2 -19.8 -16 -27 -18.2 -27 -0.9 0 -2.9 1.5 -4.3 3.3 -3.3 4.2 -21.6 36.8 -22.4 39.9 -0.7 2.6 1.5 5.2 5 6.1 3 0.7 40.7 0.6 43.1 -0.1z"/>
  <path d="M92 94.5 l0 -10.5 3.4 0 c4 0 4.6 1.3 4.6 11.2 0 8.8 -0.5 9.8 -4.6 9.8 l-3.4 0 0 -10.5z"/>
 </g>
 <g fill="#000000">
  <path d="M71.3 124.3 c-2.7 -0.5 -6.3 -4.8 -6.3 -7.4 0 -2.7 1.5 -5.7 12.2 -24.9 10.7 -19.1 14.3 -24 18.2 -24 4.1 0 5.5 1 9.5 6.9 7.8 11.5 22.4 38.6 22.4 41.4 0 1.7 -1 3.9 -2.7 5.5 l-2.6 2.7 -24.3 0.1 c-13.3 0.1 -25.2 0 -26.4 -0.3z m15.9 -12.7 c0.1 -3 0.1 -8.2 0 -11.6 -0.4 -7.2 -0.4 -7.3 -7.6 6.2 -2.6 4.8 -4.5 9.2 -4.1 9.8 0.3 0.5 3 1 6 1 l5.3 0 0.4 -5.4z m29.5 4.6 c0.9 -0.6 -0.5 -3.9 -5.1 -12.1 l-6.3 -11.2 -0.6 7.7 c-0.4 4.2 -0.7 9.7 -0.7 12.1 l0 4.3 5.8 0 c3.1 0 6.2 -0.4 6.9 -0.8z m-19.8 -21.2 c-0.1 -8.5 -1.8 -9 -1.8 -0.5 -0.1 5.5 0.2 7.5 0.9 6.5 0.5 -0.8 0.9 -3.5 0.9 -6z"/>
  <path d="M46.4 112 c-19.8 -5.2 -35.8 -18.4 -43 -35.7 -2.5 -5.9 -2.9 -8.1 -2.9 -16.8 0 -8.4 0.4 -10.8 2.3 -15 1.4 -2.9 2.6 -7.6 2.8 -11 0.6 -8.5 2.8 -13.7 8 -18.5 5.8 -5.3 9.9 -7 17.2 -7 7.9 0 15.5 3.8 20.2 10.3 l3.5 4.7 7.1 0 7 0 4.6 -5.4 c5.9 -6.7 11.7 -9.6 19.7 -9.6 8.3 0 15.1 3.7 20.3 11 3.4 4.9 4 6.5 4.7 13.5 0.5 4.8 1.7 9.7 3 12.2 1.8 3.6 2.1 5.9 2 15 0 10.1 -0.2 11.2 -3.2 17.3 -3.5 7.1 -5.5 8.2 -8.5 5 -3.1 -3.3 -8.4 -14.7 -8 -17.3 0.3 -2.1 0 -2.2 -12.2 -3 -11.9 -0.8 -69.7 -0.4 -70.5 0.5 -1 1 1.9 8.2 5.6 13.6 7 10.6 20.8 17.3 35.4 17.3 8.8 0 10.5 0.5 10.5 3.1 0 2.4 -5.2 12.2 -8.3 15.6 -2.6 2.8 -7.4 2.8 -17.3 0.2z m12.2 -8.1 c0.9 -1.6 -1.5 -2.9 -5.6 -2.9 -5.4 0 -19.3 -5.3 -24.9 -9.5 -8.8 -6.4 -15.1 -17.4 -15.9 -27.6 -0.7 -9.6 -0.8 -9.5 20.5 -10.4 21.6 -0.9 73.6 0.1 76.2 1.5 1.1 0.5 2.1 2.6 2.5 4.7 1.5 8.8 1.8 9.6 2.7 8.2 1.8 -2.9 1 -14.5 -1.4 -19.8 l-2.4 -5 -2.9 3.1 c-1.6 1.7 -4.3 3.7 -6.1 4.4 -3.8 1.7 -13 1.8 -17 0.3 -6.1 -2.3 -10.3 -8.8 -10.3 -16 l0 -3.8 -12.4 -0.3 -12.4 -0.3 -0.4 6.2 c-0.3 5.3 -0.9 6.8 -3.3 9.4 -4 4.2 -8.3 5.9 -14.7 5.9 -6.2 0 -12.6 -2.7 -15.5 -6.4 l-2.1 -2.6 -2.1 5.1 c-3.5 8.1 -3.7 13.3 -0.8 21.1 6 15.8 18.6 27.6 36 33.8 6 2.1 11.3 2.5 12.3 0.9z"/>
 </g>
 <g fill="#ffffff">
  <path d="M71.5 118.6 c-1.9 -1.4 -1.9 -1.5 -0.2 -5.3 3.1 -6.4 14.8 -27.4 19.1 -34 2.3 -3.6 4.7 -6.3 5.7 -6.3 0.9 0 3.4 2.7 5.7 6.3 7.3 11.3 20.2 34.8 20.2 36.7 0 3.5 -3.2 4 -26.2 4 -17.7 0 -22.8 -0.3 -24.3 -1.4z m26.9 -1.6 c2.2 -0.8 2.6 -1.6 2.6 -4.9 0 -2.2 -0.5 -4.3 -1 -4.6 -0.8 -0.5 -0.7 -1.2 0.2 -2.2 1.8 -2.2 1.6 -19.6 -0.2 -21.7 -1.6 -2.1 -6.4 -2 -8.4 0 -2.1 2 -2.2 16.7 -0.2 20.5 1.1 2.2 1.1 2.9 0 4.4 -1.8 2.5 -1.8 4.5 0.2 7.3 1.7 2.4 3 2.7 6.8 1.2z"/>
  <path d="M52 108.3 c-10.6 -1.8 -23.9 -8.6 -31.4 -16.1 -7.2 -7.3 -10.1 -11.7 -13.3 -20 -3.1 -8.4 -2.9 -18.8 0.6 -26.7 1.2 -2.7 2.4 -7.7 2.7 -11 0.6 -8.6 2 -11.9 6.5 -16 4.9 -4.4 7.6 -5.5 14 -5.5 6.7 0 12.2 3 16.4 8.9 2 2.7 4.2 5.2 5.1 5.5 0.9 0.3 5.4 0.6 10.1 0.6 7.5 0 8.7 -0.2 10.3 -2.2 7 -8.4 8.7 -10.1 11.8 -11.3 13.6 -5.7 28.2 4.8 28.2 20.3 0 2.9 1 6.8 2.5 10 2.1 4.5 2.5 6.9 2.5 14.5 0 6.5 -0.5 10.4 -1.7 13.4 -1 2.4 -2.1 4.3 -2.4 4.3 -1.3 0 -5.6 -10.7 -5.7 -14 0 -1.9 -0.8 -3.9 -1.7 -4.6 -3.3 -2.4 -82.8 -3.1 -88.9 -0.8 -6.6 2.5 1.6 21.7 13 30.4 7.5 5.7 19.7 10 29 10.2 7.2 0.1 7.2 0 2.9 6.7 -2.6 4.2 -3.6 4.6 -10.5 3.4z m-15.7 -60.7 c5.7 -2.4 9 -6.9 9.5 -12.9 0.7 -8.6 -3.5 -14.6 -11.8 -16.8 -4.2 -1.1 -5 -1 -9.5 1.2 -12.4 6.1 -12.4 22.4 -0.1 28 4.9 2.2 7.6 2.3 11.9 0.5z m62 0 c3.9 -1.7 8.2 -6.1 9.7 -10.1 2.8 -7.4 -3.3 -17.4 -12.1 -19.7 -4.2 -1 -5.1 -0.9 -9.5 1.3 -8.1 4 -11.3 12.1 -8 20 3.4 8.2 12 11.9 19.9 8.5z"/>
 </g>
</svg>