<?xml version="1.0" encoding="utf-8"?>
<!DOCTYPE svg PUBLIC "-//W3C//DTD SVG 1.0//EN" "http://www.w3.org/TR/2001/REC-SVG-20010904/DTD/svg10.dtd">
<svg version="1.0" xmlns="http://www.w3.org/2000/svg" width="128px" height="128px" viewBox="0 0 128 128" preserveAspectRatio="xMidYMid meet">
 <g fill="none">
  <path d="M0 64 l0 -64 64 0 64 0 0 64 0 64 -64 0 -64 0 0 -64z m102.5 49.9 c7.9 -2.2 15.5 -10.7 17 -19 2 -11.1 -13.9 -26.7 -24.8 -24.3 -10.5 2.2 -19.7 12.6 -19.7 22 0 8.9 9 19.7 17.9 21.5 5.2 1 5.2 1 9.6 -0.2z m-36.7 -13.6 c0.5 -4.8 -1.3 -7.3 -5.2 -7.3 -4.1 0 -17.4 -3.4 -22.4 -5.7 -6 -2.8 -14.7 -12.3 -17.1 -18.8 -2.5 -6.7 -2.7 -11.1 -0.5 -11.9 0.9 -0.3 20.2 -0.6 43 -0.6 39.6 0 41.4 0.1 41.4 1.8 0 2.1 2.2 4.3 6.2 6 2.6 1.1 2.8 1 3.9 -2.9 1.1 -3.6 0.9 -4.9 -1.9 -13.4 -1.8 -5.1 -3.2 -11.1 -3.2 -13.2 -0.1 -5.3 -3 -11.1 -7.7 -15.4 -9.7 -8.8 -18.6 -6.9 -28.5 5.9 -1.6 2 -2.6 2.2 -12.3 2.2 -6.3 0 -10.5 -0.4 -10.5 -1 0 -2.2 -7.3 -8.9 -12 -10.9 -6.8 -2.9 -11.7 -1.7 -18.1 4.8 -4.8 4.7 -6.9 9.6 -6.9 15.7 0 1.8 -1.2 6.3 -2.6 10 -3.1 8.3 -3.2 14.1 -0.5 21.9 4.5 12.9 18 26.5 31.5 31.8 6.9 2.7 15.3 4.6 19.6 4.4 3.2 -0.2 3.5 -0.5 3.8 -3.4z"/>
 </g>
 <g fill="#000000">
  <path d="M89.9 117.1 c-6.7 -1.3 -15 -9.1 -16.8 -15.8 -2.6 -9.2 -0.8 -19 4.7 -25.3 6.3 -7.5 17.1 -10.7 26.7 -8 6.3 1.8 13.6 8.5 16.5 15.2 4.4 10.1 1.1 22.6 -7.7 29.6 -6 4.7 -13.8 6.1 -23.4 4.3z m14.6 -7.1 c3.4 -1.3 9.4 -8.1 11 -12.5 2.3 -6 0.8 -11.2 -5.3 -17.5 -7.7 -7.9 -16.4 -8.6 -24.5 -1.9 -9.9 8.2 -9.6 21.6 0.9 29.6 5.4 4 11.3 4.8 17.9 2.3z"/>
  <path d="M50 105.6 c-15.3 -3.5 -28.3 -12.3 -37.4 -25.4 -7.3 -10.6 -9 -25.4 -4.3 -37.6 1.5 -3.7 2.7 -8.2 2.7 -10 0 -6.1 2.1 -11 6.9 -15.7 7.1 -7.2 15.6 -8.8 24.6 -4.5 4.7 2.1 11.5 8.5 11.5 10.6 0 0.6 3.4 1 7.5 1 6.6 0 7.7 -0.3 9.3 -2.2 6.6 -8.5 12.3 -11.8 20.5 -11.8 10.9 0 21.6 10.6 21.7 21.5 0 2.2 1.4 7.8 3 12.5 3.3 9.4 3.8 16.2 1.6 21.5 -1.7 4 -2.9 4.2 -8.3 1.8 -5.1 -2.3 -7.3 -4.2 -7.3 -6.5 0 -1.7 -1.7 -1.8 -38.4 -1.8 -21.1 0 -39.1 0.3 -40 0.6 -1.3 0.5 -1.3 1.2 0.4 5.5 2.3 6.1 7.7 12.9 13.3 16.8 5 3.4 15.8 6.9 24 7.8 6.7 0.7 7.1 1.2 8.2 9.7 0.5 4.4 0.4 6.1 -0.7 6.7 -1.9 1.2 -12.4 0.9 -18.8 -0.5z m13 -6.6 c0 -2.4 0.2 -2.3 -10.9 -4.4 -4.7 -0.8 -11.3 -2.9 -14.7 -4.6 -11.6 -5.7 -21.4 -19.4 -21.4 -29.8 0 -7.1 -2.8 -6.7 45.6 -7 45.5 -0.3 46.4 -0.2 46.4 4 0 2.2 2.7 3.5 4.1 2.1 1 -1 -0.4 -7.5 -3.4 -15.6 l-1.4 -3.7 -1.1 2.5 c-2 4.5 -6.8 6.5 -15.2 6.5 -11.6 0 -17 -4.8 -17 -15.2 l0 -4.3 -11.9 0.3 -11.9 0.3 -0.4 5.9 c-0.5 6.7 -2.9 10.2 -8.5 12.6 -7.3 3.1 -19.2 0.5 -22.9 -5.1 l-1.7 -2.6 -2 4.3 c-3.1 6.6 -3 17.7 0.4 24.8 2.9 6.3 12.1 16.7 18.7 21.2 7.3 5 18.9 9.1 27.5 9.7 1.1 0.1 1.7 -0.6 1.7 -1.9z"/>
 </g>
 <g fill="#ffffff">
  <path d="M90.3 114 c-4.3 -1 -9.6 -5.1 -12.3 -9.6 -3.5 -5.5 -3.9 -15.5 -1 -21.7 2.9 -6.2 8.1 -10.3 14.6 -11.8 9.8 -2.2 17.4 0.5 23.8 8.4 2.9 3.6 3 4.1 2.8 12.5 -0.3 7.6 -0.6 9.2 -3 12.7 -3.8 5.4 -8.6 8.5 -13.3 8.5 -2.2 0 -3.9 0.5 -3.9 1 0 1.1 -3 1.1 -7.7 0z"/>
  <path d="M57 102.9 c0 -0.7 -1.2 -0.9 -3.4 -0.5 -4.1 0.8 -14.5 -2.8 -21.8 -7.5 -6.7 -4.3 -16.6 -15.3 -19.5 -21.5 -4.9 -10.7 -5 -19.9 -0.5 -31.1 1.5 -3.7 2.1 -4.3 4.8 -4.3 2.2 0 3.6 0.8 5.2 2.9 1.1 1.6 4.2 3.7 6.7 4.6 5.7 2.2 10.6 1 15 -3.5 2.4 -2.5 3 -4 3.3 -9.3 l0.4 -6.2 14.1 0.1 14.2 0.1 0.7 4.1 c1 6.2 3.8 11.2 7.2 13.3 6.1 3.7 16.6 1.5 19.6 -4.1 0.9 -1.6 1.9 -2 4.3 -1.8 2.7 0.3 3.4 0.9 4.9 4.8 1 2.6 1.7 7.4 1.7 11.3 0.1 5.6 -0.2 6.9 -1.6 7.4 -1 0.4 -2 1 -2.3 1.4 -0.9 1.3 -5 -1 -5 -2.9 0 -3.2 -2.2 -4.2 -9.2 -4.2 -3.9 0 -6.8 -0.4 -6.8 -1 0 -0.6 -7.5 -1 -20.5 -1 -13 0 -20.5 0.4 -20.5 1 0 0.6 -3.3 1 -8 1 -4.5 0 -8 -0.4 -8 -1 0 -2.3 -11.7 1.5 -12.5 4.1 -1.1 3.3 3.6 12.9 9.2 18.9 6.8 7.4 14.9 11.6 26.7 13.8 6.8 1.3 8.6 2 8.6 3.3 0 1 0.4 1.9 1 2.1 0.5 0.2 1.2 1.8 1.6 3.6 l0.7 3.2 -5.2 0 c-3.1 0 -5.1 -0.4 -5.1 -1.1z"/>
  <path d="M86 17.6 c0 -4.3 3.3 -5.7 9.8 -4 2.7 0.8 2.9 3.4 0.2 3.4 -1.1 0 -2 0.5 -2 1 0 0.6 -1.8 1 -4 1 -2.8 0 -4 -0.4 -4 -1.4z"/>
 </g>
 <g fill="#ffffff">
  <path d="M95 114.2 c0 -0.5 -1.3 -0.7 -2.8 -0.4 -5.5 0.8 -13.4 -6 -16 -13.7 -1.5 -4.4 -1.5 -12.3 0 -15.8 3.7 -8.5 10 -13 19.5 -13.9 5 -0.5 6.5 -0.2 11.3 2.3 10.6 5.5 15.6 17.3 11.6 27.7 -2.3 6 -8.7 12.1 -14.1 13.5 -5.2 1.3 -9.5 1.4 -9.5 0.3z m10.7 -6.2 c1.8 -1.1 4.6 -3.8 6.3 -6.1 2.5 -3.5 3 -5.2 3 -9.8 0 -10.7 -6.7 -18.2 -17 -18.9 -10.3 -0.7 -17.6 4.4 -20.2 14.2 -2 7.5 2.2 17 9.2 20.7 4.8 2.6 14.4 2.6 18.7 -0.1z"/>
  <path d="M52.1 102.9 c-12.5 -2.5 -22.4 -8.2 -31.4 -17.8 -5.8 -6.3 -8.8 -11.1 -10.2 -16.6 -1.3 -4.8 -1.4 -5.7 -1.6 -11.5 -0.2 -5.9 0.3 -8.4 2.8 -13.9 0.8 -1.8 1.9 -6.5 2.4 -10.2 0.5 -3.8 1.5 -8.2 2.3 -9.8 3.4 -6.5 12.1 -10.8 19.7 -9.8 5 0.7 11.4 5 14.4 9.7 l2.5 4 8.6 0 8.6 0 3.4 -3.7 c1.9 -2 3.4 -4 3.4 -4.4 0 -1.6 7.1 -5 11.2 -5.4 11.8 -1.2 21.7 7.3 21.8 18.7 0.1 2.4 0.8 6.1 1.6 8.3 3.3 8.7 4.6 15.1 4 19.9 -0.3 2.7 -0.7 5.1 -0.9 5.3 -1 0.9 -9.7 -4.2 -9.7 -5.7 0 -2.4 -2.1 -4 -5.1 -4 -1.5 0 -3 -0.6 -3.2 -1.2 -0.4 -0.9 -0.6 -0.9 -0.6 -0.2 -0.1 0.9 -7.3 1.2 -25.4 1.3 -21.8 0.2 -25.6 0 -26.7 -1.4 -1.6 -2 -7.9 -2 -8.6 0 -0.5 1.1 -2.1 1.5 -5.9 1.5 -6.9 0 -10.5 1.4 -10.5 4 0 4.3 5.7 14.5 11 19.7 7.9 7.7 15 10.8 30.5 13.1 4.7 0.7 5 0.9 5.3 4 0.2 1.8 -0.3 3.8 -1.1 4.6 -1.9 2 -7.3 2.6 -12.6 1.5z m8.9 -5.4 c0 -1.7 0.3 -1.6 -9.8 -3.9 -14.7 -3.3 -26.1 -11.2 -31.9 -22.3 -3.9 -7.4 -4.7 -10.9 -3.3 -14.3 2.2 -5.3 3.5 -5.4 43 -5.8 20 -0.2 38 -0.1 39.8 0.3 1.9 0.3 5 2.2 7 4 1.9 1.9 3.9 3.2 4.3 2.9 2.3 -1.4 -0.8 -16 -3.6 -17 -0.6 -0.3 -2.6 0.8 -4.3 2.4 -3.7 3.5 -10.9 5.7 -15.4 4.8 -7.1 -1.4 -12.7 -7.6 -13.8 -15.1 l-0.5 -4 -11.2 -0.3 -11.3 -0.3 0 2.6 c0 3.1 -2.5 9.3 -4.8 11.8 -2.6 2.9 -8.7 5.7 -12.6 5.7 -4.7 0 -7.7 -1.3 -12 -5 -2 -1.8 -4.2 -3 -5 -2.7 -2.4 1 -4.9 10.4 -4.3 16.6 1 10.4 4.2 16.8 12.6 25.2 10.2 10.1 21.6 15.6 32.9 15.8 3.1 0.1 4.2 -0.3 4.2 -1.4z m-22.2 -51.9 c4 -2.1 6.9 -5.6 8.1 -10 0.9 -3.3 0.7 -4.7 -0.9 -8.3 -4.4 -10.1 -18.4 -11.4 -24.8 -2.2 -2.4 3.5 -2.2 12.1 0.4 15.6 4.1 5.5 11.8 7.7 17.2 4.9z m59.4 -1.2 c5.8 -3 8.3 -11.5 5.3 -17.8 -1.8 -3.9 -6.9 -7.6 -10.4 -7.6 -1.1 0 -2.1 -0.4 -2.1 -0.9 0 -1.7 -9.9 3.8 -11.6 6.4 -0.9 1.5 -1.9 4.7 -2.1 7.3 -0.4 4 0 5.3 2.5 8.8 4.5 6.1 11.1 7.5 18.4 3.8z"/>
 </g>
</svg>