<?xml version="1.0" encoding="utf-8"?>
<!DOCTYPE svg PUBLIC "-//W3C//DTD SVG 1.0//EN" "http://www.w3.org/TR/2001/REC-SVG-20010904/DTD/svg10.dtd">
<svg version="1.0" xmlns="http://www.w3.org/2000/svg" width="128px" height="128px" viewBox="0 0 128 128" preserveAspectRatio="xMidYMid meet">
 <g fill="none">
  <path d="M0 64 l0 -64 64 0 64 0 0 64 0 64 -64 0 -64 0 0 -64z m103.6 49.5 c8.7 -3.6 16.4 -13.5 16.4 -21.1 0 -7.6 -6.6 -17.1 -14.4 -20.8 -6.6 -3.1 -10.6 -3.2 -16.6 -0.5 -7.7 3.4 -13.5 10.4 -15.4 18.3 -1 4.1 1.9 11.7 6.4 16.9 7 7.9 15.6 10.5 23.6 7.2z m-38.8 -16.2 c0.6 -5.7 -1.1 -7.3 -7.7 -7.3 -8 0 -17.6 -3.1 -24.3 -7.9 -8 -5.8 -14.8 -17 -14.8 -24.6 l0 -3.5 41.3 0 c22.6 0 41.7 0.4 42.3 0.8 0.6 0.4 1.3 1.5 1.7 2.5 0.8 2.2 7.6 5.2 8.9 3.9 1.7 -1.7 1.1 -10.8 -1.2 -15.8 -1.2 -2.7 -2.6 -8 -3.1 -11.9 -1.2 -9.2 -4.8 -15.1 -11.4 -18.8 -4 -2.2 -5.8 -2.6 -9 -2.1 -4.8 0.7 -9.7 4.2 -13.4 9.5 l-2.6 3.8 -10.5 0.1 -10.5 0 -3.5 -4.7 c-4.6 -6.1 -11.3 -9.7 -16.5 -8.7 -8.7 1.6 -16.5 11.3 -16.5 20.5 0 3 -1.2 7.7 -3.1 12.4 -3.4 8.6 -3.3 11.4 0.4 21.5 6.8 18.6 29.4 34.4 48.2 33.7 4.8 -0.2 5 -0.3 5.3 -3.4z"/>
 </g>
 <g fill="#000000">
  <path d="M85.2 115.9 c-2.3 -1.2 -6 -4.1 -8.2 -6.6 -15.2 -17.3 -3.4 -43.2 19.8 -43.3 12.4 0 21.8 7.2 25.7 19.8 3.7 11.6 -3.5 25.5 -15.9 30.7 -5.4 2.3 -16.2 1.9 -21.4 -0.6z m12.1 -23.1 c-0.7 -5.4 -0.8 -5.5 -3.3 -3.3 -2.5 2.3 -2.5 3 0 5.5 3 3 3.9 2.4 3.3 -2.2z"/>
  <path d="M45.8 102.4 c-9.8 -2.3 -17.6 -7 -25.8 -15.3 -7.9 -7.9 -11 -13.3 -13.5 -22.8 -2.2 -8.5 -1.9 -13.5 1.5 -22 1.8 -4.5 3 -9.3 3 -12.1 0.1 -21.1 27.9 -28.9 39.6 -11.2 l2.7 4 7.6 0 7.6 -0.1 2.6 -3.8 c4.7 -6.7 8.8 -9.1 16.6 -9.7 6.1 -0.4 7.3 -0.2 11.8 2.3 6.6 3.8 10.2 9.6 11.4 18.8 0.5 3.9 1.9 9.3 3.2 12 1.6 3.5 2.3 7 2.3 11.5 0.1 9.1 -0.9 12 -3.8 12 -3.6 0 -11.6 -3.7 -12.3 -5.7 -0.4 -1 -1.1 -2.1 -1.7 -2.5 -1.2 -0.9 -77.6 -1.1 -77.6 -0.3 0 1.4 3.4 8.5 6.2 12.8 6.1 9.5 20.3 16.7 32.9 16.7 6.8 0 7.3 0.6 8.2 8.9 0.4 3.4 0.2 6 -0.4 6.8 -1.5 1.7 -14.5 1.6 -22.1 -0.3z m16 -6.6 c-0.3 -2.1 -1 -2.4 -7.8 -2.9 -16.6 -1.4 -28.6 -9.6 -36 -24.3 -3.4 -6.7 -4.1 -14.5 -1.5 -16.6 1.1 -0.9 11.4 -1.2 42.5 -1.1 22.6 0 42.2 0.4 43.5 0.7 1.3 0.3 2.7 1.6 3.1 2.7 0.7 2.2 2.2 3.7 3.7 3.7 1.4 0 0.6 -7.6 -1.3 -11.9 -1.1 -2.4 -2 -5 -2 -5.9 0 -0.9 -1.3 0 -3.4 2.4 -3.3 3.8 -3.4 3.9 -11.5 4.2 -4.8 0.3 -9.3 -0.1 -11 -0.8 -3.8 -1.5 -7.1 -7.7 -7.1 -13.1 l0 -4.4 -12 0 -12 0 0 4.8 c0 10 -5.2 14.7 -16.3 14.7 -7.9 0 -11.6 -1.6 -14.6 -6.2 -1.1 -1.8 -2.1 -2.7 -2.1 -1.9 0 0.8 -1.1 4.3 -2.5 7.8 -2.6 6.3 -2.6 6.5 -1 12.6 2.4 9.6 5.3 14.6 12.6 21.9 9.4 9.3 22.5 15.5 33.2 15.7 3.4 0.1 3.8 -0.1 3.5 -2.1z"/>
 </g>
 <g fill="#cccccc">
  <path d="M85.9 112.7 c-11.3 -6 -15.8 -20.1 -10 -31.5 7.1 -13.8 27.2 -16.5 37.9 -5.1 4.4 4.6 7.5 13.3 6.8 18.2 -1.3 8.1 -7.5 16.1 -14.8 19.1 -5.7 2.4 -14.6 2.1 -19.9 -0.7z m15.8 -3.8 c3.6 -1.3 4.4 -2.8 3.1 -5.3 -1.6 -3 -2.8 -3.6 -7.5 -3.6 -5.6 0 -8.3 -2.6 -8.3 -7.9 0 -3.1 0.6 -4.4 2.6 -6 3.2 -2.5 5.5 -2.6 9.7 -0.4 3.1 1.6 3.2 1.6 0.9 2.6 -3 1.4 -2.8 3 0.9 7.2 5.2 5.9 6.6 6.2 10.6 2.3 5.7 -5.5 6 -6.5 2.1 -10.3 -1.8 -1.8 -4.4 -4.7 -5.6 -6.4 -3.6 -4.8 -7.5 -6.4 -14.6 -5.9 -10.1 0.6 -16.6 7.2 -16.6 16.7 0 12.3 11.8 21.2 22.7 17z"/>
  <path d="M46.3 99.5 c-16.1 -4.4 -30.5 -17.1 -35.4 -31.2 -3.4 -10.1 -3.5 -15.8 -0.4 -23.7 1.5 -3.8 3.1 -9.9 3.5 -13.6 0.4 -3.7 1.6 -8.2 2.6 -9.9 4.1 -6.9 14.1 -10.7 21.7 -8.2 2.1 0.7 5.7 3.6 9 7.1 l5.5 6 8.1 0 c7.5 0 8.4 -0.2 10.4 -2.5 7.5 -8.7 9.7 -10.4 14.2 -11.1 12.6 -1.8 20.8 5.2 22.5 19.4 0.5 3.7 1.9 9 3.1 11.7 2.2 4.9 3.3 17.5 1.6 19.1 -0.3 0.4 -2.6 -0.1 -5.1 -1 -3 -1.2 -4.6 -2.4 -5 -4 -0.3 -1.4 -1.6 -2.6 -3 -3 -1.4 -0.3 -19.7 -0.6 -40.7 -0.6 -43.4 -0.1 -42.2 -0.3 -40 6.9 0.6 2.2 3 6.8 5.4 10.3 7.5 11.1 18.8 17.6 32.5 18.6 4.1 0.2 7.5 1 7.7 1.6 0.2 0.6 0.6 3 0.8 5.4 l0.5 4.2 -7.1 -0.1 c-4 0 -9.6 -0.7 -12.4 -1.4z m-28.8 -51.5 c1.9 0 1.9 -1.4 0.2 -2.9 -1.1 -0.8 -1.6 -0.5 -2.5 1.5 -1.5 3.1 -1.5 5.6 -0.1 3.2 0.5 -1 1.7 -1.8 2.4 -1.8z m87.3 -1.7 l-1.3 -3.1 -2.8 2.4 c-2.4 2 -2.5 2.4 -0.9 2.4 1 0 2.7 0.6 3.8 1.4 2.4 1.8 2.8 0.8 1.2 -3.1z m-30.8 -2.3 c-1.8 -1.9 -3.3 -5.1 -4 -8.3 l-1.2 -5.2 -8.9 0 c-8.6 0 -8.9 0.1 -8.9 2.3 0 3.1 -2.7 9.2 -5.2 11.9 l-2.1 2.3 16.5 0 16.6 0 -2.8 -3z m-34.9 -0.5 c6.7 -3.5 9 -13.1 4.6 -19.6 -2.9 -4.3 -6 -5.9 -11.7 -5.9 -5.2 0 -8 1.6 -10.9 6.4 -5.5 8.8 0.9 20.6 11.2 20.6 2.1 0 5.1 -0.7 6.8 -1.5z m60 -3.3 c7.6 -8.5 2.5 -20.9 -9 -22 -5.9 -0.5 -9.1 1.1 -12.1 6.1 -2.6 4.2 -2.5 9 0.1 13.7 2.8 5 5.1 6 12.3 5.7 5.2 -0.3 6.3 -0.7 8.7 -3.5z"/>
 </g>
 <g fill="#cccccc">
  <path d="M107 104.5 c0 -2 0.5 -2.5 2.5 -2.5 3 0 3.2 1.1 0.7 3.3 -2.5 2.3 -3.2 2.1 -3.2 -0.8z"/>
  <path d="M50 96.9 c-12.5 -2.1 -26.9 -11.8 -33.9 -22.8 -3.6 -5.7 -6.1 -13.9 -6.1 -20.2 0 -4.4 3 -14.2 5 -16.3 0.4 -0.4 2.5 1 4.5 3.3 6.3 7 14.6 7.7 22 1.9 3.4 -2.6 6.4 -9.1 6.5 -13.7 0 -2.5 0.4 -3.2 1.4 -2.8 0.8 0.3 4.3 0.8 7.8 1.1 4.3 0.3 5.2 0.2 2.8 -0.3 -2.7 -0.6 -1.7 -0.8 4.1 -0.7 l7.6 0.1 1.1 5.3 c1.4 6.9 4.2 10.6 9.4 12.7 4.7 1.8 13.4 1.3 12.2 -0.7 -0.5 -0.7 -0.2 -0.8 0.5 -0.3 0.8 0.4 2.7 -0.7 5.2 -3.1 4.5 -4.4 5.1 -4.2 7.9 3.9 2.2 6.1 2.5 10.3 1 12.7 -0.8 1.2 -1.3 1.1 -3.7 -0.8 -7.7 -6.1 -4.5 -5.7 -44.6 -6 -20.2 -0.2 -37.6 0 -38.5 0.4 -0.9 0.4 -2 0.8 -2.4 0.8 -1.2 0.2 -2.1 1.6 -1 1.6 0.7 0 1.2 0.4 1.2 0.8 0 0.5 -1 0.8 -2.2 0.8 -3.6 -0.1 -3.4 3.8 0.6 11.9 6.5 13.1 17.4 21.1 33.4 24.5 6.7 1.4 10.7 3.8 9.2 5.4 -1.2 1.1 -5.9 1.3 -11 0.5z"/>
  <path d="M92.2 94.8 c-1.5 -1.5 -1.5 -5.1 0 -6.6 1.6 -1.6 4.8 -1.5 4.8 0.2 0 0.7 0.3 2.8 0.6 4.5 0.6 2.8 0.4 3.1 -1.8 3.1 -1.3 0 -2.9 -0.5 -3.6 -1.2z"/>
  <path d="M113.2 55 c0 -1.9 0.2 -2.7 0.5 -1.7 0.2 0.9 0.2 2.5 0 3.5 -0.3 0.9 -0.5 0.1 -0.5 -1.8z"/>
  <path d="M21 53 c0 -0.5 0.7 -1 1.5 -1 0.8 0 1.5 0.5 1.5 1 0 0.6 -0.7 1 -1.5 1 -0.8 0 -1.5 -0.4 -1.5 -1z"/>
  <path d="M79 52.5 c0 -1 1 -1.5 3 -1.5 2 0 3 0.5 3 1.5 0 1 -1 1.5 -3 1.5 -2 0 -3 -0.5 -3 -1.5z"/>
  <path d="M29 17 c0 -0.5 0.7 -1 1.5 -1 0.8 0 1.5 0.5 1.5 1 0 0.6 -0.7 1 -1.5 1 -0.8 0 -1.5 -0.4 -1.5 -1z"/>
 </g>
</svg>