<?xml version="1.0" encoding="utf-8"?>
<!DOCTYPE svg PUBLIC "-//W3C//DTD SVG 1.0//EN" "http://www.w3.org/TR/2001/REC-SVG-20010904/DTD/svg10.dtd">
<svg version="1.0" xmlns="http://www.w3.org/2000/svg" width="128px" height="128px" viewBox="0 0 128 128" preserveAspectRatio="xMidYMid meet">
 <g fill="none">
  <path d="M0 64 l0 -64 64 0 64 0 0 64 0 64 -64 0 -64 0 0 -64z m92.5 52.2 c-5.6 -4.9 -15.7 -13.2 -16.1 -13.2 -0.9 0 2.5 5.6 4.8 7.6 3.1 3 9 6.4 10.8 6.4 0.8 0 1 -0.3 0.5 -0.8z m22.2 -6.6 c2.2 -2.5 4.8 -7 5.8 -10 1.7 -4.8 1.7 -6.2 0.7 -10.1 -3.2 -12.1 -16.3 -21.9 -26.6 -20 -7.6 1.5 -19.6 11.3 -19.6 16 0 1.5 11.9 11.5 13.7 11.5 0.6 0 1.3 0.4 1.5 0.9 0.7 2 17.3 16.1 18.9 16.1 0.9 0 3.5 -2 5.6 -4.4z m-51.4 -6.8 c2.1 -1.6 1.3 -8.4 -1.2 -9.7 -0.9 -0.5 -5.3 -1.4 -9.9 -2 -9.9 -1.3 -16.8 -4.4 -24 -10.7 -7.2 -6.3 -10.3 -11.9 -11 -19.9 -0.4 -5 -0.2 -6.5 0.9 -6.5 0.7 0 -1.2 -2.2 -4.2 -4.9 -3 -2.7 -5.7 -4.7 -6.1 -4.5 -0.4 0.3 -1.2 2.8 -1.8 5.8 -3.9 19.1 16.9 44.7 41.5 51 3.3 0.8 7.4 1.7 9 1.9 1.7 0.2 3.5 0.5 4.1 0.6 0.5 0 1.8 -0.5 2.7 -1.1z m51.9 -43.4 c1.2 -4 0.1 -11.9 -2.3 -16.6 -1.1 -2.2 -2.4 -7.3 -2.9 -11.4 -1.2 -11.3 -6.1 -17.5 -16.3 -20.6 -6.7 -2 -13.3 1.5 -21.4 11.5 -2.1 2.6 -2.5 2.7 -12.2 2.7 l-10.1 0 -2.4 -3.9 c-4 -6.2 -11.5 -11.1 -17.3 -11.1 -6 0 -15.2 7.5 -17.7 14.6 -1.3 3.7 -1.2 4.3 0.5 7 1 1.7 6.5 7.1 12.3 12.2 l10.4 9.2 24.4 0.1 c13.3 0.1 28.8 0.4 34.3 0.8 9.5 0.6 9.9 0.7 10.5 3.1 0.6 2.4 6.3 6.2 8.4 5.6 0.6 -0.1 1.4 -1.6 1.8 -3.2z"/>
 </g>
 <g fill="#cccccc">
  <path d="M87.6 119.5 c-5.9 -2.1 -10.8 -6.5 -14.3 -13.1 -4.1 -7.4 -4.3 -10.4 -0.7 -10.4 3.8 0 26.4 19.3 26.4 22.6 0 2.1 -0.4 2.4 -3.7 2.4 -2.1 -0.1 -5.5 -0.7 -7.7 -1.5z"/>
  <path d="M104.4 116.4 c-6.1 -4.1 -12.4 -10.6 -12.4 -12.9 0 -5.4 7 -6.2 12.5 -1.4 4 3.6 4.7 2.1 1 -2.3 -3.4 -4.1 -3.3 -8.2 0.6 -12.5 4 -4.6 2.9 -5.4 -2 -1.5 -5.1 4.1 -8.5 4.1 -12.8 0 -4 -3.8 -5.8 -2.9 -2 1 2 2.1 2.7 3.8 2.7 6.8 0 8.3 -4.9 8.6 -14.3 0.8 -7.9 -6.5 -8.3 -8.5 -3.7 -15.7 8.4 -13.3 26.5 -16.5 40 -7.2 7.7 5.4 12.9 17.4 11.1 25.6 -2.2 9.6 -7.2 17.3 -13.2 20.5 -3.5 1.8 -2.9 1.9 -7.5 -1.2z"/>
  <path d="M53.5 106.3 c-29.7 -4.1 -53.8 -29.6 -51.2 -54.2 1.5 -13.9 4.1 -15.1 14.1 -6.4 6.7 5.8 8.5 9.6 5 11 -1.2 0.4 -1.4 1.4 -0.9 4.2 1 5.4 4.9 11.4 10.7 16.5 7.3 6.4 14.2 9.5 24.3 10.8 4.7 0.6 9.2 1.6 10 2.2 0.9 0.7 1.8 3.6 2.2 7.5 0.5 5.5 0.4 6.6 -1.2 7.7 -1.8 1.3 -6.6 1.6 -13 0.7z"/>
  <path d="M107 64.7 c-3 -1.5 -4.6 -3 -5 -4.7 -0.6 -2.4 -1 -2.5 -10.5 -3.1 -5.5 -0.4 -21 -0.7 -34.3 -0.8 l-24.4 -0.1 -10.5 -9.2 c-14.6 -13 -16 -15.7 -12.8 -24.9 2.7 -7.6 10.3 -13.8 18.8 -15.4 7.1 -1.4 17.5 4.1 22.3 11.6 l2.4 3.9 7.1 0 c6.4 0 7.2 -0.2 9.2 -2.7 5.4 -6.7 9.6 -9.9 15 -11.8 5.4 -1.8 5.9 -1.8 10.9 -0.2 11.9 3.8 16.5 9.2 17.8 21.1 0.5 4.1 1.8 9.3 3 11.7 2.7 5.1 3.7 16.7 2.1 22.7 -1 3.6 -1.5 4.2 -3.9 4.1 -1.5 0 -4.7 -1 -7.2 -2.2z m-68.7 -28.9 c2 -2.2 3.7 -4.7 3.7 -5.6 0 -2.3 -4.7 -8 -8.1 -9.8 -3.9 -1.9 -5.9 -1.2 -10.3 3.7 -3 3.2 -3.5 4.4 -3 6.7 1.1 4.4 2.3 6.2 5.7 8.3 4.3 2.6 7.3 1.8 12 -3.3z m59.5 0.6 c1.7 -1.8 3.2 -4.3 3.2 -5.5 0 -3.5 -4 -9 -7.7 -10.5 -2.9 -1.3 -3.7 -1.2 -6.2 0.1 -3.8 1.9 -7.1 6.6 -7.1 9.9 0 1.4 1.3 4.1 3 6 4.9 5.5 9.5 5.6 14.8 0z"/>
 </g>
 <g fill="#000000">
  <path d="M87.6 119.6 c-5.9 -2.2 -10.8 -6.6 -14.3 -13.2 -3.8 -6.9 -4.3 -11.4 -1.3 -11.4 2.4 0 28.5 22 28.5 24 0 2.1 -7.9 2.4 -12.9 0.6z m7.4 -2.9 c-3.1 -2.9 -19.6 -16.4 -20.7 -17.1 -1.6 -0.9 -0.1 3.4 2.8 8.1 3.2 5.2 11.6 10.1 17.4 10.3 1.7 0 1.7 -0.2 0.5 -1.3z"/>
  <path d="M104.2 116.3 c-2.2 -1.6 -7.2 -5.8 -11 -9.4 -3.9 -3.7 -7.7 -6.9 -8.4 -7.1 -0.7 -0.3 -4.1 -2.9 -7.6 -5.8 -7.3 -6.1 -7.7 -8.2 -3.2 -15.3 8.4 -13.3 26.5 -16.5 40 -7.2 7.7 5.4 12.9 17.4 11.1 25.6 -2.2 9.6 -7.2 17.3 -13.2 20.5 -3.5 1.8 -2.9 1.9 -7.7 -1.3z m11.2 -5.4 c9.7 -11.5 9.4 -24.2 -0.8 -34.5 -6.1 -6 -11.2 -7.9 -19.2 -7.1 -8.3 0.9 -16.5 6.1 -19.9 12.8 -2.1 4 -1.4 5.6 4.5 10.4 5.4 4.4 6.8 4.8 8.3 2.3 0.8 -1.3 0.4 -2.4 -2.1 -5.2 -7.3 -8.4 -0.7 -14.6 7.6 -7.2 l3.7 3.4 4 -3.4 c2.2 -1.8 5 -3.4 6.2 -3.4 2.2 0 5.3 2.4 5.3 4.1 0 1.7 -2.1 5.2 -4.7 8 l-2.4 2.6 2.4 2.9 c4.1 5 4.9 7.1 3.6 9.7 -1.2 2.2 -2.8 3.7 -4.1 3.7 -0.4 0 -2.8 -1.8 -5.3 -4 -3.8 -3.3 -5 -3.8 -6.1 -2.9 -1.3 1 -1.1 1.7 1.3 4.1 1.5 1.6 4.8 4.2 7.2 5.8 4.9 3.3 6.2 3.1 10.5 -2.1z"/>
  <path d="M53.5 106.3 c-27.9 -3.9 -51.3 -26.8 -51.5 -50.5 0 -4.9 1.8 -13.1 3.4 -15.3 1.1 -1.6 1.5 -1.6 4.2 -0.2 3.7 2 14.4 12 14.4 13.5 0 0.6 -0.9 1.7 -2.1 2.6 -6.2 4.3 6 21.6 19.9 28.2 3.1 1.4 8.7 2.9 13.7 3.6 4.7 0.6 9.2 1.6 10 2.2 0.9 0.7 1.8 3.6 2.2 7.5 0.5 5.5 0.4 6.6 -1.2 7.7 -1.8 1.3 -6.6 1.6 -13 0.7z m11.5 -5.7 c0 -7.3 -1 -8.1 -10.2 -9.4 -11.7 -1.7 -20.8 -6.3 -28.6 -14.7 -4.5 -4.8 -6.5 -7.9 -7.9 -12.1 -1.6 -5.2 -1.6 -5.8 -0.1 -8.5 l1.7 -2.9 -4.6 -4.3 c-7.9 -7.3 -8.6 -7.2 -9.8 1.6 -3.3 23.6 18.1 47.9 46.3 52.7 2.6 0.4 6.6 0.8 9 0.9 4.1 0.1 4.2 0.1 4.2 -3.3z"/>
  <path d="M109 65.5 c-5.3 -2.2 -6.3 -3.1 -7.3 -6.6 -0.6 -2 -15.8 -2.9 -47.5 -2.9 l-21.4 0 -10.5 -9.2 c-14.6 -13 -16 -15.7 -12.8 -24.9 2.7 -7.6 10.3 -13.8 18.8 -15.4 7.1 -1.4 17.5 4.1 22.3 11.6 l2.4 3.9 7.1 0 c6.4 0 7.2 -0.2 9.2 -2.7 5.4 -6.7 9.6 -9.9 15 -11.8 5.4 -1.8 5.9 -1.8 10.9 -0.2 11.9 3.8 16.5 9.2 17.8 21.1 0.5 4.1 1.8 9.3 3 11.7 3.9 7.5 3.6 25.7 -0.3 27.2 -0.7 0.3 -3.7 -0.6 -6.7 -1.8z m6.6 -6.1 c0.9 -6.3 -0.1 -13.3 -2.7 -19 -1.1 -2.6 -2.4 -7.5 -2.6 -10.8 -0.8 -9.2 -4 -14.1 -11.6 -17.7 -3.4 -1.6 -7.3 -2.9 -8.8 -2.9 -4.6 0 -12.6 4.8 -16.4 10 -1.9 2.6 -4.2 5.1 -5.1 5.4 -0.9 0.3 -4.9 0.6 -9 0.6 l-7.3 0 -4.1 -5.5 c-6.7 -9.1 -15.4 -12.2 -23.6 -8.5 -6.2 2.7 -9.2 5.4 -11.5 10.5 -3.6 7.8 -3.1 8.9 9.3 20.8 l11.2 10.7 24.5 0.1 c13.5 0.1 29.1 0.4 34.6 0.8 l10 0.6 1.5 3.2 c1.4 2.9 6.1 5.9 9.7 6.2 0.7 0.1 1.5 -1.9 1.9 -4.5z"/>
  <path d="M23 41.8 c-3.8 -2.6 -5.9 -7.1 -5.9 -13.2 -0.1 -3.3 0.6 -4.5 4.3 -8.2 3.7 -3.8 4.9 -4.4 8.5 -4.4 8.5 0 15.1 6.3 15.1 14.2 0 3.8 -0.6 5.2 -3.8 8.8 -3.4 3.9 -4.3 4.3 -9.2 4.7 -4.6 0.4 -6.1 0.1 -9 -1.9z"/>
  <path d="M85.5 43.3 c-3.1 -0.8 -7.3 -5.3 -8.6 -9.1 -3.1 -9.3 4.9 -19 14.8 -17.9 5.8 0.6 8.6 2.7 11.3 8.2 2.8 5.8 2.1 10.3 -2.4 15.2 -2.7 3 -4 3.6 -8.2 3.9 -2.7 0.1 -5.8 0 -6.9 -0.3z"/>
 </g>
</svg>