<?xml version="1.0" encoding="utf-8"?>
<!DOCTYPE svg PUBLIC "-//W3C//DTD SVG 1.0//EN" "http://www.w3.org/TR/2001/REC-SVG-20010904/DTD/svg10.dtd">
<svg version="1.0" xmlns="http://www.w3.org/2000/svg" width="128px" height="128px" viewBox="0 0 128 128" preserveAspectRatio="xMidYMid meet">
 <g fill="none">
  <path d="M0 64 l0 -64 64 0 64 0 0 64 0 64 -64 0 -64 0 0 -64z m114.4 55 c1.4 -0.5 2.6 -1.6 2.6 -2.4 0 -2.5 -3.4 -3.6 -10.9 -3.6 -9 0 -10.1 -0.5 -10.1 -4.4 0 -2.4 1.7 -5.1 8.1 -12.6 11 -12.9 14.1 -17.7 12.8 -20.1 -0.5 -1.1 -1.9 -1.9 -2.9 -1.9 -1.6 0 -2 -0.7 -2 -3.5 0 -2.4 0.5 -3.5 1.4 -3.5 0.8 0 2.4 -1.2 3.5 -2.6 3.1 -4 2.9 -14.5 -0.4 -22.4 -1.6 -3.7 -2.5 -7.9 -2.5 -11 0 -9.6 -6.3 -18.2 -15.7 -21.4 -7.1 -2.4 -15.5 1.4 -21.3 9.9 l-3.1 4.5 -9.8 0 -9.7 0 -4.8 -5.5 c-8.8 -10.3 -16.2 -12.1 -25.1 -6.1 -7.2 4.7 -10.4 10.3 -11.1 19.2 -0.3 4 -1.6 9.3 -3.1 12.7 -3.1 7.3 -3.2 12.4 -0.4 20.9 7.3 21.9 30.7 38.9 53.6 38.8 10.5 -0.1 13.4 -1.2 19.8 -8.1 6.8 -7.1 6.3 -8.7 -1.6 -5.7 -7.5 2.8 -21.4 3.5 -29.7 1.4 -10.2 -2.6 -18.2 -7 -23.8 -13 -6.3 -7 -8.2 -11.1 -8.2 -17.9 0 -4.8 0.3 -5.5 2.3 -6.1 3.6 -0.9 85.5 -0.7 86.1 0.3 0.3 0.5 0.3 5 -0.1 10 l-0.6 9.1 -11.2 0 c-9.1 0 -11.5 0.3 -12.6 1.6 -0.9 1.1 -1 2 -0.2 3.2 0.8 1.3 2.9 1.8 9.7 2 l8.6 0.3 0 3.9 c0 3.5 -1.1 5.2 -10.5 16.5 -5.8 7 -10.5 13.2 -10.5 13.8 0 1.9 1.4 3.4 3.5 4 3.7 0.9 27.4 0.7 29.9 -0.3z"/>
 </g>
 <g fill="#000000">
  <path d="M81.5 122.3 c-2.8 -0.7 -3.5 -2.1 -3.5 -7 0 -3.9 0.8 -5.2 10.5 -16.8 5.8 -6.9 10.5 -13 10.5 -13.5 0 -0.6 -3.6 -1 -8.3 -1 -5.1 0 -8.8 -0.5 -9.5 -1.2 -1.6 -1.6 -1.6 -9 0 -10.6 0.8 -0.8 5.1 -1.2 12.6 -1.2 9 0 11.2 -0.3 10.4 -1.2 -0.7 -0.9 -0.6 -2.8 0.3 -6.3 0.7 -2.7 1.1 -5.3 0.8 -5.8 -0.5 -0.8 -76.8 -1 -80.1 -0.1 -7.4 2 4.3 20.1 17.1 26.4 13.4 6.5 25.2 7.4 37.3 2.9 5.7 -2.1 13.6 -2 15 0.2 0.8 1.4 -1.6 4.8 -8.4 12 -6.6 7 -9 7.8 -22.7 7.9 -28.1 0.1 -51.5 -17.6 -58.1 -43.9 -1.9 -7.7 -1.3 -14.2 2.1 -22.1 1.3 -3.1 2.6 -8.5 2.9 -12.4 0.7 -9 3.9 -14.4 11.3 -19.4 5 -3.3 6.3 -3.7 11.7 -3.7 7.9 0.1 13 2.7 19.2 10 l4.8 5.5 6.7 0 6.7 0 3.6 -4.9 c9.1 -12.8 25.3 -14.4 36 -3.7 4.6 4.5 8.2 13.7 7.3 18.4 -0.3 1.6 0.4 4.9 1.9 8.4 2 4.8 2.4 7.4 2.4 15.5 0 10.5 -1.1 13.6 -5.4 15.3 l-2.1 0.9 2.2 0 c2.6 0.1 4.3 2.8 4.3 6.8 0 3.7 -3.7 9.3 -13.8 21.3 -5.5 6.4 -7.7 9.7 -6.9 10.2 0.7 0.4 4.6 0.8 8.7 0.8 8.8 0 12 1.6 12 5.9 0 1.5 -0.6 3.6 -1.4 4.7 -1.3 1.7 -2.9 1.9 -18.8 2.1 -9.5 0.1 -18.2 -0.1 -19.3 -0.4z m21.8 -6.2 c-5.1 -0.4 -9.7 -1.1 -10.4 -1.8 -0.6 -0.6 -1 -3 -0.7 -5.3 l0.4 -4.2 -2.4 2.8 c-5.3 6.6 -6.3 8.2 -5 8.7 0.7 0.3 7.2 0.5 14.3 0.5 12.8 -0.1 12.9 -0.1 3.8 -0.7z m-30.9 -16.1 c2.2 -0.5 5.1 -2 6.5 -3.5 l2.6 -2.5 -3.5 0.7 c-1.9 0.5 -8.7 0.8 -15 0.7 -9.8 -0.1 -12.5 -0.4 -18.1 -2.6 -9.3 -3.6 -13.7 -6.7 -20.2 -13.9 -6.3 -6.9 -7.7 -10.4 -7.7 -19.6 0 -6.1 0 -6.2 3.3 -7.1 3.6 -1.2 68.8 -2.2 81.5 -1.3 9.6 0.7 10.4 1.4 10 8.4 -0.2 3.2 0.1 4.7 0.9 4.7 3.7 0 4.6 -13.5 1.3 -20 -1.1 -2.2 -2 -4.6 -2 -5.5 0 -2.5 -1.7 -1.7 -4 1.9 -2.7 4.4 -7.2 5.9 -15.8 5.4 -10.3 -0.5 -15.2 -5.4 -15.2 -15 l0 -4.3 -11.5 0.4 c-7.6 0.2 -12 -0.1 -12.9 -0.8 -1.1 -0.9 -1.4 0 -1.8 5.3 -0.3 5.2 -0.9 7.1 -2.8 9.2 -3.8 4 -7.4 5.4 -14 5.4 -7.7 0 -12.6 -2.2 -15.4 -6.9 l-2 -3.5 -0.7 2.9 c-0.4 1.7 -1.7 5.2 -2.9 7.9 -1.2 2.7 -2.2 6.6 -2.2 8.6 0.1 4.8 3.4 14 7.4 20.8 10.2 17 36 28.5 54.2 24.2z m38.7 -17.2 c1.6 -2.3 2.9 -4.5 2.9 -5 0 -0.4 -6.4 -0.7 -14.2 -0.6 -13.8 0.1 -14 0.1 -4.8 0.7 5.2 0.4 10.1 1 10.8 1.5 0.9 0.5 1.3 2.2 1 4.6 -0.4 4.5 0.3 4.3 4.3 -1.2z"/>
 </g>
 <g fill="#cccccc">
  <path d="M82.3 119.3 c-0.7 -0.2 -1.3 -1.9 -1.3 -3.7 0 -2.6 1.6 -5.2 8.3 -13 11.2 -13.4 14.9 -18.8 13.6 -20.1 -0.5 -0.5 -5.2 -1.2 -10.4 -1.3 l-9.5 -0.4 0 -3.4 0 -3.4 17.3 0.2 17.2 0.3 0.3 2.8 c0.4 3.2 -1.3 5.8 -11.8 18.2 -10 11.7 -11.6 14.3 -10.2 15.7 0.7 0.7 5.8 1.5 11.4 1.9 5.7 0.4 10.4 0.8 10.6 0.8 1.1 0.4 -0.2 4.2 -1.7 5.1 -2 1 -31.4 1.3 -33.8 0.3z"/>
  <path d="M46.4 101.6 c-15.7 -5.1 -27.6 -14.8 -33.7 -27.6 -6.5 -13.6 -6.9 -22.7 -1.7 -33 1.1 -2.1 2.1 -6.7 2.4 -10.8 0.6 -8.4 2.1 -11.8 7.8 -16.6 9.8 -8.5 19.9 -6.9 29.9 4.6 l5.2 6 8.4 -0.4 c7 -0.2 8.6 -0.6 9.5 -2.2 1.8 -3.3 8.1 -9.7 10.8 -11.1 7.3 -3.8 15.7 -2.6 22.1 3.2 5 4.5 7 9.1 7.4 16.9 0.2 3.7 1.2 7.8 2.4 10.2 1.7 3.3 2.1 6 2.1 13.2 0 11.8 -0.6 13 -7.1 13 -5 0 -5.1 -0.1 -4.5 -2.5 0.3 -1.4 0.9 -3.6 1.2 -4.9 0.9 -4 -1.8 -5.6 -9.9 -5.8 -21.6 -0.4 -72.6 0.5 -75.4 1.3 -2.8 0.9 -3.3 1.5 -3.3 4.2 0 6 2 10.4 7.7 16.6 6.5 7.2 10.9 10.2 20.2 13.9 9 3.5 23.8 3.7 32.1 0.4 5.7 -2.3 9.5 -2.8 10.4 -1.4 0.2 0.4 -2.1 3.6 -5.2 7.1 -6.6 7.3 -8.9 8.1 -22.7 8 -6.6 0 -10.9 -0.6 -16.1 -2.3z m-26.6 -56.3 c-1.7 -2.1 -3.5 -1.5 -4.6 1.5 l-1 2.9 3.4 -1.6 c2.6 -1.1 3.1 -1.8 2.2 -2.8z m90.5 1 c-1.1 -3.1 -1.5 -3.4 -2.9 -2.2 -1.9 1.5 -1.8 2.7 0.4 3.2 3 0.8 3.2 0.7 2.5 -1z m-33.1 -3.6 c-2.1 -2.1 -3.6 -5.1 -4.4 -8.4 l-1.2 -5.1 -8.8 0.1 c-7.7 0.2 -8.8 0.4 -8.8 2 0 2.9 -2.9 9 -5.7 12 l-2.7 2.7 17.4 0 17.4 0 -3.2 -3.3z m-37.4 -1.1 c9.5 -5 10.9 -16 2.9 -23.4 -3.5 -3.3 -12.1 -4 -16.3 -1.4 -4 2.6 -7.8 10.2 -6.9 14 2.1 9.6 12.3 15 20.3 10.8z m60 0.3 c3.1 -1.1 7.6 -6.9 8.7 -11.2 1.4 -5.4 -5 -14.1 -11.1 -15.3 -11 -2 -19 6 -17 17 0.7 3.5 4.6 8.2 8.1 9.7 2.9 1.1 7.7 1.1 11.3 -0.2z"/>
 </g>
 <g fill="#cccccc">
  <path d="M84.6 114.1 c-0.7 -1 3.4 -7.3 5.1 -7.8 1 -0.4 3.3 5.2 3.3 8 0 1 -7.8 0.9 -8.4 -0.2z"/>
  <path d="M53.3 98.9 c-22.2 -3.9 -40.9 -22.5 -43 -42.6 -0.4 -4 0 -6.8 1.7 -11.5 3.3 -9.1 3.5 -9.3 8 -4.9 5.2 5 11.5 6.9 17.3 5.1 5.6 -1.6 11.2 -7.4 12.7 -13 0.7 -2.5 1.4 -5.1 1.6 -5.8 0.2 -0.9 1.2 -1 3.1 -0.5 3.5 1 7.2 1 14.6 0 5.5 -0.7 5.7 -0.6 5.7 1.6 0 6.2 4.5 13.3 10.2 16.3 3.2 1.7 12.1 1.8 15.1 0.3 1.2 -0.6 3.9 -2.7 5.9 -4.7 l3.8 -3.6 2.1 4.9 c2.6 5.9 3.6 16.2 2 19.4 -1.4 2.5 -3.1 1.9 -3.1 -1 0 -3.6 -2.8 -7.7 -6.1 -8.8 -4.1 -1.4 -70.9 -1.5 -79.4 -0.1 -7.8 1.3 -10 3.5 -9.9 9.8 0.1 6 3.7 12.9 10.4 20 6 6.1 11.6 9.6 21.3 12.9 6.5 2.2 8.4 2.4 19 2 8.3 -0.3 11.7 -0.1 11.4 0.7 -1 3.2 -14.8 5.2 -24.4 3.5z"/>
  <path d="M105 83.8 c0 -1.9 -0.5 -3.9 -1.1 -4.5 -2.5 -2.5 2.2 -4.4 6.5 -2.7 3 1.2 1.4 5.3 -3.7 9.3 -1.5 1.2 -1.7 1 -1.7 -2.1z"/>
  <path d="M43 53 c0 -1.2 2.4 -1.2 6 0 2.1 0.7 1.9 0.8 -1.7 0.9 -2.4 0.1 -4.3 -0.3 -4.3 -0.9z"/>
  <path d="M94 53.6 c0 -0.2 1.1 -0.6 2.5 -0.8 1.4 -0.3 2.5 -0.1 2.5 0.3 0 0.5 -1.1 0.9 -2.5 0.9 -1.4 0 -2.5 -0.2 -2.5 -0.4z"/>
 </g>
</svg>